<svg width="13" height="19" viewBox="0 0 13 19" fill="none" xmlns="http://www.w3.org/2000/svg">
<g style="mix-blend-mode:luminosity" clip-path="url(#clip0_925_104)">
<path d="M6.5 9.50004C6.5 8.66019 6.84241 7.85473 7.4519 7.26087C8.0614 6.667 8.88805 6.33337 9.75 6.33337C10.612 6.33337 11.4386 6.667 12.0481 7.26087C12.6576 7.85473 13 8.66019 13 9.50004C13 10.3399 12.6576 11.1453 12.0481 11.7392C11.4386 12.3331 10.612 12.6667 9.75 12.6667C8.88805 12.6667 8.0614 12.3331 7.4519 11.7392C6.84241 11.1453 6.5 10.3399 6.5 9.50004V9.50004Z" fill="#1ABCFE"/>
<path d="M0 15.8333C0 14.9934 0.34241 14.188 0.951903 13.5941C1.5614 13.0003 2.38805 12.6666 3.25 12.6666H6.5V15.8333C6.5 16.6731 6.15759 17.4786 5.5481 18.0725C4.9386 18.6663 4.11195 19 3.25 19C2.38805 19 1.5614 18.6663 0.951903 18.0725C0.34241 17.4786 0 16.6731 0 15.8333H0Z" fill="#0ACF83"/>
<path d="M6.5 0V6.33333H9.75C10.612 6.33333 11.4386 5.9997 12.0481 5.40584C12.6576 4.81197 13 4.00652 13 3.16667C13 2.32681 12.6576 1.52136 12.0481 0.927495C11.4386 0.33363 10.612 0 9.75 0L6.5 0Z" fill="#FF7262"/>
<path d="M0 3.16667C0 4.00652 0.34241 4.81197 0.951903 5.40584C1.5614 5.9997 2.38805 6.33333 3.25 6.33333H6.5V0H3.25C2.38805 0 1.5614 0.33363 0.951903 0.927495C0.34241 1.52136 0 2.32681 0 3.16667H0Z" fill="#F24E1E"/>
<path d="M0 9.50004C0 10.3399 0.34241 11.1453 0.951903 11.7392C1.5614 12.3331 2.38805 12.6667 3.25 12.6667H6.5V6.33337H3.25C2.38805 6.33337 1.5614 6.667 0.951903 7.26087C0.34241 7.85473 0 8.66019 0 9.50004H0Z" fill="#A259FF"/>
</g>
<defs>
<clipPath id="clip0_925_104">
<rect width="13" height="19" fill="white"/>
</clipPath>
</defs>
</svg>
