<svg width="67" height="24" viewBox="0 0 67 24" fill="none" xmlns="http://www.w3.org/2000/svg">
<g clip-path="url(#clip0_925_111)">
<path d="M0.476562 0V18.6092L2.86286 18.6185V9.75692H8.59917V7.41231H2.85369V2.33538H10.3338V0H0.476562ZM14.6108 3.78462C15.0246 3.78462 15.4215 3.61929 15.7141 3.325C16.0067 3.03071 16.1711 2.63157 16.1711 2.21539C16.1711 1.7992 16.0067 1.40006 15.7141 1.10577C15.4215 0.811483 15.0246 0.646154 14.6108 0.646154C14.197 0.646154 13.8001 0.811483 13.5075 1.10577C13.2149 1.40006 13.0505 1.7992 13.0505 2.21539C13.0505 2.63157 13.2149 3.03071 13.5075 3.325C13.8001 3.61929 14.197 3.78462 14.6108 3.78462V3.78462ZM13.4085 6.12V18.6185H15.7948V6.12H13.4085V6.12Z" fill="white"/>
<path fill-rule="evenodd" clip-rule="evenodd" d="M24.6159 5.76001C21.4586 5.76001 19.2559 8.44616 19.2559 11.64C19.2559 14.8339 21.4586 17.52 24.6159 17.52C26.066 17.52 27.2591 16.9662 28.1311 16.0431V17.7046C28.1371 18.2011 28.0453 18.6938 27.8609 19.1544C27.6764 19.6149 27.4031 20.0341 27.0566 20.3878C26.7101 20.7414 26.2973 21.0225 25.8421 21.2147C25.387 21.4069 24.8984 21.5065 24.4048 21.5077C23.643 21.5077 22.8904 21.2123 22.2938 20.7877L21.1007 22.8646C22.0233 23.4644 23.0897 23.8026 24.1875 23.8436C25.2853 23.8846 26.3738 23.6269 27.3381 23.0975C28.3023 22.5682 29.1067 21.7869 29.6663 20.8361C30.2258 19.8853 30.5199 18.8003 30.5174 17.6954V6.12924H28.1311V7.24616C27.2591 6.32309 26.066 5.76924 24.6159 5.76924V5.76001ZM21.633 11.64C21.633 9.65539 23.1382 8.09539 24.882 8.09539C26.6259 8.09539 28.1219 9.66462 28.1219 11.64C28.1219 13.6246 26.6167 15.1754 24.882 15.1754C23.1382 15.1754 21.633 13.6246 21.633 11.64V11.64Z" fill="white"/>
<path d="M39.0902 8.09541C38.4077 8.10754 37.7574 8.38937 37.2799 8.87996C36.8024 9.37055 36.5361 10.0305 36.5386 10.717V18.6185H34.1523V6.12003H36.5386V7.26464C36.8957 6.78875 37.3594 6.40441 37.8921 6.14294C38.4249 5.88147 39.0114 5.75027 39.6041 5.76003C41.2745 5.76003 42.5595 6.5908 43.2937 7.86464C43.7033 7.22606 44.264 6.69956 44.9255 6.33228C45.587 5.965 46.3287 5.76838 47.0843 5.76003C49.7918 5.76003 51.4897 7.95695 51.4897 10.68V18.6185H49.1218V10.7077C49.1243 10.0212 48.858 9.36131 48.3806 8.87073C47.9031 8.38014 47.2528 8.09831 46.5703 8.08618C45.8878 8.09831 45.2375 8.38014 44.76 8.87073C44.2825 9.36131 44.0163 10.0212 44.0188 10.7077V18.6093H41.6325V10.7077C41.635 10.0228 41.37 9.36424 40.8945 8.87391C40.419 8.38358 39.771 8.1007 39.0902 8.08618V8.09541Z" fill="white"/>
<path fill-rule="evenodd" clip-rule="evenodd" d="M64.1816 7.54157C63.6397 6.97329 62.9883 6.52218 62.2671 6.21586C61.5459 5.90953 60.7701 5.75443 59.9872 5.76003C56.4445 5.76003 53.9297 8.76927 53.9297 12.3693C53.9297 15.9693 56.4445 18.9785 59.9872 18.9785C60.7698 18.9825 61.5451 18.8267 62.2661 18.5204C62.9871 18.2142 63.6387 17.7639 64.1816 17.197V18.6185H66.5587V6.12003H64.1724V7.54157H64.1816ZM56.3068 12.3693C56.3068 9.98773 58.1241 8.09542 60.2442 8.09542C62.3552 8.09542 64.1816 9.98773 64.1816 12.3693C64.1816 14.7508 62.3643 16.6339 60.2442 16.6339C58.1332 16.6339 56.3068 14.7508 56.3068 12.3693V12.3693Z" fill="white"/>
</g>
<defs>
<clipPath id="clip0_925_111">
<rect width="67" height="24" fill="white"/>
</clipPath>
</defs>
</svg>
