<svg width="73" height="19" viewBox="0 0 73 19" fill="none" xmlns="http://www.w3.org/2000/svg">
<path d="M44.0076 0.149892L42.228 14.7653L41.8573 16.5495C41.8944 16.5495 41.9685 16.5495 42.0056 16.5495C43.8964 16.5115 45.2682 14.8032 45.5277 12.6774L46.5658 4.28776C46.8624 1.74431 45.3794 0.149892 44.0076 0.149892Z" fill="white"/>
<path d="M42.0427 4.89515H39.9294V4.78127C40.0777 3.37667 40.4114 2.65539 41.4865 2.50355C42.228 2.42762 42.5246 2.04801 42.6359 1.63042C42.71 1.28876 42.8954 0.149894 42.8954 0.149894C38.6689 0.111932 37.3342 1.97208 37.0005 4.81923V4.89515H36.9634C36.2961 4.89515 35.5175 5.69236 35.4063 6.67937L35.3692 7.05899H36.7781L35.5917 17.043L35.2209 18.8272C35.258 18.8272 35.3322 18.8272 35.3692 18.8272C37.3342 18.7513 38.5947 17.1569 38.8913 14.8412L39.8182 7.02103H40.4855C41.1529 7.02103 41.8944 6.33772 42.0427 5.23682V4.89515Z" fill="white"/>
<path d="M11.1595 8.00804C11.1595 8.00804 9.93601 11.9181 9.82479 12.2598C9.78771 11.9181 8.89792 4.89515 8.89792 4.89515C6.82174 4.89515 5.70949 6.41363 5.1163 8.00804C5.1163 8.00804 3.63332 11.9181 3.52209 12.2598C3.52209 11.9561 3.29964 8.046 3.29964 8.046C3.18842 6.07198 1.40884 4.89515 0 4.89515L1.70543 15.5625C3.89283 15.5625 5.04215 14.044 5.67242 12.4496C5.67242 12.4496 6.97004 8.99506 7.04419 8.84321C7.04419 8.99506 7.97105 15.5625 7.97105 15.5625C10.1585 15.5625 11.3448 14.1579 11.9751 12.6014L15.0523 4.89515C12.902 4.89515 11.7527 6.41363 11.1595 8.00804Z" fill="white"/>
<path d="M31.5876 4.62942C30.2529 4.62942 29.2148 5.38866 28.3621 6.48956L29.1407 0.0739746C27.3611 0.0739746 25.9152 1.66838 25.6186 4.02202L24.2468 15.4486C25.2849 15.4486 26.3601 15.1449 26.9533 14.3857C27.4723 15.069 28.2509 15.6384 29.4373 15.6384C32.4403 15.6384 34.5165 12.07 34.5165 8.69135C34.4794 5.61642 33.0335 4.62942 31.5876 4.62942ZM31.291 10.1339C30.9574 11.9941 29.9563 13.2848 28.9553 13.2848C27.9543 13.2848 27.5465 12.8292 27.5465 12.8292C27.7319 11.1969 27.8431 10.1719 28.2138 9.29874C28.5846 8.42562 29.4373 7.05899 30.3271 7.05899C31.2169 7.05899 31.6247 8.27377 31.291 10.1339Z" fill="white"/>
<path d="M23.5795 7.43861C23.5795 6.10994 22.3189 4.66738 20.0945 4.66738C17.6105 4.66738 14.904 6.52752 14.4962 10.2478C14.0884 14.006 16.3499 15.6384 18.6486 15.6384C20.9472 15.6384 22.1336 14.7273 23.357 13.5125C22.3189 12.1459 20.9472 12.7913 20.6877 12.9051C20.3911 13.057 20.0203 13.2468 19.2788 13.2468C18.389 13.2468 17.4992 12.8292 17.4992 11.1589C23.1346 10.5895 23.5795 8.76728 23.5795 7.43861ZM20.7618 7.66638C20.7247 8.08396 20.5764 8.80524 17.6846 9.18486C18.2778 6.98307 19.4271 6.83121 19.9832 6.83121C20.5023 6.79325 20.7989 7.21084 20.7618 7.66638Z" fill="white"/>
<path d="M69.1072 8.00804C69.1072 8.00804 67.8837 11.9181 67.7725 12.2598C67.7354 11.9181 66.8456 4.89515 66.8456 4.89515C64.7694 4.89515 63.6572 6.41363 63.064 8.00804C63.064 8.00804 61.581 11.9181 61.4698 12.2598C61.4698 11.9561 61.2473 8.046 61.2473 8.046C61.1361 6.07198 59.3565 4.89515 57.9477 4.89515L59.6531 15.5625C61.8405 15.5625 62.9898 14.044 63.6201 12.4496C63.6201 12.4496 64.9177 8.99506 64.9919 8.84321C64.9919 8.99506 65.9187 15.5625 65.9187 15.5625C68.1061 15.5625 69.2925 14.1579 69.9228 12.6014L73 4.89515C70.8126 4.89515 69.6633 6.41363 69.1072 8.00804Z" fill="white"/>
<path d="M52.9797 4.70534C50.5698 4.70534 48.2712 6.52752 47.5668 9.41264C46.8624 12.2978 47.9375 15.6764 51.4967 15.6764C55.0559 15.6764 57.1321 12.1459 57.1321 9.18486C57.095 6.26179 55.1671 4.70534 52.9797 4.70534ZM53.9436 10.058C53.8324 11.3487 53.2763 13.3227 51.7192 13.3227C50.162 13.3227 50.3845 11.007 50.5328 9.90614C50.6811 8.72932 51.3484 7.05899 52.7202 7.05899C53.9807 7.05899 54.0919 8.57747 53.9436 10.058Z" fill="white"/>
</svg>
