<svg width="101" height="23" viewBox="0 0 101 23" fill="none" xmlns="http://www.w3.org/2000/svg">
<path fill-rule="evenodd" clip-rule="evenodd" d="M34.2547 15.2071L34.2353 14.9473H33.9749H32.3587H32.0664L32.0784 15.2396C32.2117 18.4963 34.4055 20.6534 38.307 20.6534C42.0281 20.6534 44.5584 18.7185 44.5584 15.7897C44.5584 14.206 44.0094 13.0853 42.9633 12.32C42.1586 11.7312 41.1965 11.3994 39.601 11.0532C39.4944 11.03 39.3833 11.0063 39.2502 10.9783C39.1711 10.9616 38.8874 10.9022 38.9025 10.9054C36.005 10.2974 35.086 9.76932 35.086 8.19652C35.086 6.57013 36.4149 5.53441 38.6437 5.53441C40.8122 5.53441 42.1827 6.85992 42.2465 8.94646L42.2548 9.21868H42.527H44.1207H44.4078L44.4012 8.93139C44.3262 5.67897 42.1457 3.49009 38.6213 3.49009C35.167 3.49009 32.8862 5.57034 32.8862 8.26392C32.8862 9.8431 33.4346 10.9428 34.4823 11.6776C35.2805 12.2374 36.2051 12.5341 37.8362 12.8637C37.9126 12.8791 37.9923 12.8951 38.0872 12.9139C38.146 12.9256 38.2123 12.9387 38.3368 12.9633C39.8801 13.2689 40.561 13.4576 41.1823 13.8191C41.9534 14.2679 42.3362 14.909 42.3362 15.902C42.3362 17.6262 40.8877 18.6091 38.3519 18.6091C35.9243 18.6091 34.4178 17.3906 34.2547 15.2071ZM49.1038 3.20928V2.92847H48.8232H47.2295H46.9489V3.20928V20.0581V20.3389H47.2295H48.8232H49.1038V20.0581V17.0539L51.3721 14.843L55.4228 20.227L55.507 20.3389H55.6469H57.6222H58.1875L57.8457 19.8883L52.8987 13.3668L57.461 8.82239L57.9427 8.34254H57.2631H55.1307H55.0139L54.9316 8.4255L49.1038 14.2996V3.20928ZM69.2383 15.0821H69.5019L69.5183 14.8188C69.5212 14.7725 69.5255 14.6959 69.5298 14.6037C69.5332 14.5307 69.536 14.4595 69.538 14.3923C69.5401 14.3194 69.5413 14.2531 69.5413 14.1947C69.5413 10.67 67.2087 8.07296 63.7613 8.07296C60.3205 8.07296 57.8691 10.8374 57.8691 14.3295C57.8691 17.9229 60.2094 20.6085 63.7838 20.6085C66.4865 20.6085 68.5745 19.0035 69.3268 16.5691L69.4392 16.2053H69.0587H67.3977H67.1995L67.1332 16.3922C66.6608 17.7247 65.3818 18.6091 63.8062 18.6091C61.7464 18.6091 60.3105 17.1933 60.0518 15.0821H69.2383ZM60.1171 13.2175C60.4808 11.3271 61.87 10.0724 63.7613 10.0724C65.7107 10.0724 67.0561 11.2859 67.3503 13.2175H60.1171ZM76.6119 10.2521H76.8925V9.97126V8.62336V8.34254H76.6119H74.2663V5.36592V5.08511H73.9857H72.392H72.1114V5.36592V8.34254H70.2147H69.9341V8.62336V9.97126V10.2521H70.2147H72.1114V16.9804C72.1114 19.1875 73.2553 20.3838 75.3549 20.3838C75.7214 20.3838 76.0373 20.3619 76.3026 20.325C76.4665 20.3022 76.5797 20.2786 76.6421 20.2612L76.8476 20.2041V19.9907V18.5529V18.2045L76.5074 18.2785C76.4938 18.2815 76.4663 18.2871 76.4269 18.2945C76.3603 18.307 76.286 18.3195 76.2064 18.3312C76.0023 18.3613 75.8 18.3805 75.6137 18.3839C75.5945 18.3842 75.5756 18.3844 75.557 18.3844C74.6372 18.3844 74.2663 17.952 74.2663 16.868V10.2521H76.6119ZM83.3122 20.6085C86.2949 20.6085 88.4008 18.7195 88.9297 16.0464L88.9961 15.7111H88.6545H87.0383H86.8226L86.7672 15.9198C86.3141 17.6256 85.0844 18.6091 83.3122 18.6091C81.1006 18.6091 79.5749 16.863 79.5749 14.3519C79.5749 11.8214 81.098 10.0724 83.3122 10.0724C85.0844 10.0724 86.3141 11.0559 86.7672 12.7617L86.8226 12.9703H87.0383H88.6545H88.9961L88.9297 12.635C88.4008 9.96194 86.2949 8.07296 83.3122 8.07296C79.8474 8.07296 77.3976 10.857 77.3976 14.3519C77.3976 17.8277 79.8508 20.6085 83.3122 20.6085ZM92.9642 3.20928V2.92847H92.6836H91.0899H90.8093V3.20928V20.0581V20.3389H91.0899H92.6836H92.9642V20.0581V13.2961C92.9642 11.2358 94.2172 10.0274 96.1179 10.0274C97.9333 10.0274 98.8452 11.0792 98.8452 13.0714V20.0581V20.3389H99.1257H100.719H101V20.0581V12.7569C101 9.94282 99.2589 8.07296 96.3873 8.07296C94.9099 8.07296 93.7224 8.61468 92.9642 9.39218V3.20928Z" fill="white"/>
<path fill-rule="evenodd" clip-rule="evenodd" d="M5.58576 0.757252L12.8007 0L20.0156 0.757252L25.6014 8.20143L12.8007 22.9999L0 8.20143L5.58576 0.757252Z" fill="#2F2E2E"/>
<path fill-rule="evenodd" clip-rule="evenodd" d="M5.18487 8.20142L12.8006 23L0 8.20142H5.18487Z" fill="#817F7E"/>
<path fill-rule="evenodd" clip-rule="evenodd" d="M20.4167 8.20142L12.8009 23L25.6016 8.20142H20.4167Z" fill="#817F7E"/>
<path fill-rule="evenodd" clip-rule="evenodd" d="M5.18555 8.20142H20.4171L12.8013 23L5.18555 8.20142Z" fill="#A6A6A5"/>
<path fill-rule="evenodd" clip-rule="evenodd" d="M12.8013 0L5.58638 0.757126L5.18555 8.20135L12.8013 0Z" fill="#ABABAA"/>
<path fill-rule="evenodd" clip-rule="evenodd" d="M12.8003 0L20.0152 0.757126L20.416 8.20135L12.8003 0Z" fill="#ABABAA"/>
<path fill-rule="evenodd" clip-rule="evenodd" d="M25.6016 8.2013L20.0159 0.75708L20.4167 8.2013H25.6016Z" fill="#B3B1AF"/>
<path fill-rule="evenodd" clip-rule="evenodd" d="M0 8.2013L5.5857 0.75708L5.18487 8.2013H0Z" fill="#B3B1AF"/>
<path fill-rule="evenodd" clip-rule="evenodd" d="M12.8013 0L5.18555 8.20135H20.4171L12.8013 0Z" fill="#D1D0CA"/>
</svg>
